<svg xmlns="http://www.w3.org/2000/svg" xmlns:xlink="http://www.w3.org/1999/xlink" width="600" zoomAndPan="magnify" viewBox="0 0 450 112.499997" height="150" preserveAspectRatio="xMidYMid meet" version="1.0"><defs><g/><clipPath id="2077aea07a"><path d="M 4.480469 6.917969 L 102.296875 6.917969 L 102.296875 104.734375 L 4.480469 104.734375 Z M 4.480469 6.917969 " clip-rule="nonzero"/></clipPath><clipPath id="922827a383"><path d="M 102.636719 56.003906 C 102.636719 57.609375 102.558594 59.214844 102.402344 60.8125 C 102.246094 62.414062 102.007812 64 101.695312 65.578125 C 101.382812 67.152344 100.992188 68.710938 100.523438 70.25 C 100.058594 71.789062 99.515625 73.300781 98.902344 74.785156 C 98.289062 76.269531 97.601562 77.722656 96.84375 79.140625 C 96.085938 80.558594 95.257812 81.933594 94.367188 83.269531 C 93.472656 84.609375 92.515625 85.898438 91.496094 87.140625 C 90.476562 88.382812 89.398438 89.570312 88.261719 90.707031 C 87.125 91.84375 85.9375 92.921875 84.695312 93.945312 C 83.449219 94.964844 82.160156 95.917969 80.824219 96.8125 C 79.488281 97.707031 78.109375 98.53125 76.691406 99.289062 C 75.277344 100.046875 73.824219 100.734375 72.339844 101.347656 C 70.855469 101.964844 69.34375 102.503906 67.804688 102.972656 C 66.265625 103.4375 64.707031 103.828125 63.132812 104.140625 C 61.554688 104.457031 59.964844 104.691406 58.367188 104.847656 C 56.765625 105.007812 55.164062 105.085938 53.554688 105.085938 C 51.949219 105.085938 50.34375 105.007812 48.746094 104.847656 C 47.144531 104.691406 45.558594 104.457031 43.980469 104.140625 C 42.402344 103.828125 40.847656 103.4375 39.308594 102.972656 C 37.769531 102.503906 36.257812 101.964844 34.773438 101.347656 C 33.289062 100.734375 31.835938 100.046875 30.417969 99.289062 C 29 98.53125 27.625 97.707031 26.285156 96.8125 C 24.949219 95.917969 23.660156 94.964844 22.417969 93.945312 C 21.175781 92.921875 19.984375 91.84375 18.847656 90.707031 C 17.710938 89.570312 16.632812 88.382812 15.613281 87.140625 C 14.59375 85.898438 13.636719 84.609375 12.746094 83.269531 C 11.851562 81.933594 11.027344 80.558594 10.269531 79.140625 C 9.511719 77.722656 8.824219 76.269531 8.210938 74.785156 C 7.59375 73.300781 7.054688 71.789062 6.585938 70.25 C 6.121094 68.710938 5.730469 67.152344 5.417969 65.578125 C 5.101562 64 4.867188 62.414062 4.710938 60.8125 C 4.550781 59.214844 4.472656 57.609375 4.472656 56.003906 C 4.472656 54.394531 4.550781 52.789062 4.710938 51.191406 C 4.867188 49.589844 5.101562 48.003906 5.417969 46.425781 C 5.730469 44.851562 6.121094 43.292969 6.585938 41.753906 C 7.054688 40.214844 7.59375 38.703125 8.210938 37.21875 C 8.824219 35.734375 9.511719 34.28125 10.269531 32.863281 C 11.027344 31.445312 11.851562 30.070312 12.746094 28.734375 C 13.636719 27.398438 14.59375 26.105469 15.613281 24.863281 C 16.632812 23.621094 17.710938 22.433594 18.847656 21.296875 C 19.984375 20.160156 21.175781 19.082031 22.417969 18.0625 C 23.660156 17.039062 24.949219 16.085938 26.285156 15.191406 C 27.625 14.296875 29 13.472656 30.417969 12.714844 C 31.835938 11.957031 33.289062 11.269531 34.773438 10.65625 C 36.257812 10.039062 37.769531 9.5 39.308594 9.03125 C 40.847656 8.566406 42.402344 8.175781 43.980469 7.863281 C 45.558594 7.550781 47.144531 7.3125 48.746094 7.15625 C 50.34375 7 51.949219 6.917969 53.554688 6.917969 C 55.164062 6.917969 56.765625 7 58.367188 7.15625 C 59.964844 7.3125 61.554688 7.550781 63.132812 7.863281 C 64.707031 8.175781 66.265625 8.566406 67.804688 9.03125 C 69.34375 9.5 70.855469 10.039062 72.339844 10.65625 C 73.824219 11.269531 75.277344 11.957031 76.691406 12.714844 C 78.109375 13.472656 79.488281 14.296875 80.824219 15.191406 C 82.160156 16.085938 83.449219 17.039062 84.695312 18.0625 C 85.9375 19.082031 87.125 20.160156 88.261719 21.296875 C 89.398438 22.433594 90.476562 23.621094 91.496094 24.863281 C 92.515625 26.105469 93.472656 27.398438 94.367188 28.734375 C 95.257812 30.070312 96.085938 31.445312 96.84375 32.863281 C 97.601562 34.28125 98.289062 35.734375 98.902344 37.21875 C 99.515625 38.703125 100.058594 40.214844 100.523438 41.753906 C 100.992188 43.292969 101.382812 44.851562 101.695312 46.425781 C 102.007812 48.003906 102.246094 49.589844 102.402344 51.191406 C 102.558594 52.789062 102.636719 54.394531 102.636719 56.003906 Z M 102.636719 56.003906 " clip-rule="nonzero"/></clipPath><linearGradient x1="0.0000821602" gradientTransform="matrix(98.094251, 0, 0, 98.094266, 4.473215, 55.966567)" y1="0" x2="0.997238" gradientUnits="userSpaceOnUse" y2="0" id="7e50a750b7"><stop stop-opacity="1" stop-color="rgb(99.993896%, 99.993896%, 99.993896%)" offset="0"/><stop stop-opacity="1" stop-color="rgb(99.732971%, 99.732971%, 99.732971%)" offset="0.00390625"/><stop stop-opacity="1" stop-color="rgb(99.472046%, 99.472046%, 99.472046%)" offset="0.0078125"/><stop stop-opacity="1" stop-color="rgb(99.209595%, 99.209595%, 99.209595%)" offset="0.0117188"/><stop stop-opacity="1" stop-color="rgb(98.948669%, 98.948669%, 98.948669%)" offset="0.015625"/><stop stop-opacity="1" stop-color="rgb(98.687744%, 98.687744%, 98.687744%)" offset="0.0195313"/><stop stop-opacity="1" stop-color="rgb(98.426819%, 98.426819%, 98.426819%)" offset="0.0234375"/><stop stop-opacity="1" stop-color="rgb(98.164368%, 98.164368%, 98.164368%)" offset="0.0273438"/><stop stop-opacity="1" stop-color="rgb(97.903442%, 97.903442%, 97.903442%)" offset="0.03125"/><stop stop-opacity="1" stop-color="rgb(97.642517%, 97.642517%, 97.642517%)" offset="0.0351562"/><stop stop-opacity="1" stop-color="rgb(97.381592%, 97.381592%, 97.381592%)" offset="0.0390625"/><stop stop-opacity="1" stop-color="rgb(97.120667%, 97.120667%, 97.120667%)" offset="0.0429688"/><stop stop-opacity="1" stop-color="rgb(96.859741%, 96.859741%, 96.859741%)" offset="0.046875"/><stop stop-opacity="1" stop-color="rgb(96.59729%, 96.59729%, 96.59729%)" offset="0.0507812"/><stop stop-opacity="1" stop-color="rgb(96.336365%, 96.336365%, 96.336365%)" offset="0.0546875"/><stop stop-opacity="1" stop-color="rgb(96.075439%, 96.075439%, 96.075439%)" offset="0.0585938"/><stop stop-opacity="1" stop-color="rgb(95.814514%, 95.814514%, 95.814514%)" offset="0.0625"/><stop stop-opacity="1" stop-color="rgb(95.553589%, 95.553589%, 95.553589%)" offset="0.0664062"/><stop stop-opacity="1" stop-color="rgb(95.292664%, 95.292664%, 95.292664%)" offset="0.0703125"/><stop stop-opacity="1" stop-color="rgb(95.030212%, 95.030212%, 95.030212%)" offset="0.0742188"/><stop stop-opacity="1" stop-color="rgb(94.769287%, 94.769287%, 94.769287%)" offset="0.078125"/><stop stop-opacity="1" stop-color="rgb(94.508362%, 94.508362%, 94.508362%)" offset="0.0820313"/><stop stop-opacity="1" stop-color="rgb(94.247437%, 94.247437%, 94.247437%)" offset="0.0859375"/><stop stop-opacity="1" stop-color="rgb(93.984985%, 93.984985%, 93.984985%)" offset="0.0898438"/><stop stop-opacity="1" stop-color="rgb(93.72406%, 93.72406%, 93.72406%)" offset="0.09375"/><stop stop-opacity="1" stop-color="rgb(93.463135%, 93.463135%, 93.463135%)" offset="0.0976563"/><stop stop-opacity="1" stop-color="rgb(93.202209%, 93.202209%, 93.202209%)" offset="0.101563"/><stop stop-opacity="1" stop-color="rgb(92.941284%, 92.941284%, 92.941284%)" offset="0.105469"/><stop stop-opacity="1" stop-color="rgb(92.680359%, 92.680359%, 92.680359%)" offset="0.109375"/><stop stop-opacity="1" stop-color="rgb(92.417908%, 92.417908%, 92.417908%)" offset="0.113281"/><stop stop-opacity="1" stop-color="rgb(92.156982%, 92.156982%, 92.156982%)" offset="0.117188"/><stop stop-opacity="1" stop-color="rgb(91.896057%, 91.896057%, 91.896057%)" offset="0.121094"/><stop stop-opacity="1" stop-color="rgb(91.635132%, 91.635132%, 91.635132%)" offset="0.125"/><stop stop-opacity="1" stop-color="rgb(91.374207%, 91.374207%, 91.374207%)" offset="0.128906"/><stop stop-opacity="1" stop-color="rgb(91.113281%, 91.113281%, 91.113281%)" offset="0.132812"/><stop stop-opacity="1" stop-color="rgb(90.85083%, 90.85083%, 90.85083%)" offset="0.136719"/><stop stop-opacity="1" stop-color="rgb(90.589905%, 90.589905%, 90.589905%)" offset="0.140625"/><stop stop-opacity="1" stop-color="rgb(90.328979%, 90.328979%, 90.328979%)" offset="0.144531"/><stop stop-opacity="1" stop-color="rgb(90.068054%, 90.068054%, 90.068054%)" offset="0.148438"/><stop stop-opacity="1" stop-color="rgb(89.805603%, 89.805603%, 89.805603%)" offset="0.152344"/><stop stop-opacity="1" stop-color="rgb(89.544678%, 89.544678%, 89.544678%)" offset="0.15625"/><stop stop-opacity="1" stop-color="rgb(89.283752%, 89.283752%, 89.283752%)" offset="0.160156"/><stop stop-opacity="1" stop-color="rgb(89.022827%, 89.022827%, 89.022827%)" offset="0.164062"/><stop stop-opacity="1" stop-color="rgb(88.761902%, 88.761902%, 88.761902%)" offset="0.167969"/><stop stop-opacity="1" stop-color="rgb(88.500977%, 88.500977%, 88.500977%)" offset="0.171875"/><stop stop-opacity="1" stop-color="rgb(88.238525%, 88.238525%, 88.238525%)" offset="0.175781"/><stop stop-opacity="1" stop-color="rgb(87.9776%, 87.9776%, 87.9776%)" offset="0.179687"/><stop stop-opacity="1" stop-color="rgb(87.716675%, 87.716675%, 87.716675%)" offset="0.183594"/><stop stop-opacity="1" stop-color="rgb(87.45575%, 87.45575%, 87.45575%)" offset="0.1875"/><stop stop-opacity="1" stop-color="rgb(87.194824%, 87.194824%, 87.194824%)" offset="0.191406"/><stop stop-opacity="1" stop-color="rgb(86.933899%, 86.933899%, 86.933899%)" offset="0.195312"/><stop stop-opacity="1" stop-color="rgb(86.671448%, 86.671448%, 86.671448%)" offset="0.199219"/><stop stop-opacity="1" stop-color="rgb(86.410522%, 86.410522%, 86.410522%)" offset="0.203125"/><stop stop-opacity="1" stop-color="rgb(86.149597%, 86.149597%, 86.149597%)" offset="0.207031"/><stop stop-opacity="1" stop-color="rgb(85.888672%, 85.888672%, 85.888672%)" offset="0.210938"/><stop stop-opacity="1" stop-color="rgb(85.627747%, 85.627747%, 85.627747%)" offset="0.214844"/><stop stop-opacity="1" stop-color="rgb(85.366821%, 85.366821%, 85.366821%)" offset="0.21875"/><stop stop-opacity="1" stop-color="rgb(85.10437%, 85.10437%, 85.10437%)" offset="0.222656"/><stop stop-opacity="1" stop-color="rgb(84.843445%, 84.843445%, 84.843445%)" offset="0.226562"/><stop stop-opacity="1" stop-color="rgb(84.58252%, 84.58252%, 84.58252%)" offset="0.230469"/><stop stop-opacity="1" stop-color="rgb(84.321594%, 84.321594%, 84.321594%)" offset="0.234375"/><stop stop-opacity="1" stop-color="rgb(84.059143%, 84.059143%, 84.059143%)" offset="0.238281"/><stop stop-opacity="1" stop-color="rgb(83.798218%, 83.798218%, 83.798218%)" offset="0.242188"/><stop stop-opacity="1" stop-color="rgb(83.537292%, 83.537292%, 83.537292%)" offset="0.246094"/><stop stop-opacity="1" stop-color="rgb(83.276367%, 83.276367%, 83.276367%)" offset="0.25"/><stop stop-opacity="1" stop-color="rgb(83.015442%, 83.015442%, 83.015442%)" offset="0.253906"/><stop stop-opacity="1" stop-color="rgb(82.754517%, 82.754517%, 82.754517%)" offset="0.257813"/><stop stop-opacity="1" stop-color="rgb(82.492065%, 82.492065%, 82.492065%)" offset="0.261719"/><stop stop-opacity="1" stop-color="rgb(82.23114%, 82.23114%, 82.23114%)" offset="0.265625"/><stop stop-opacity="1" stop-color="rgb(81.970215%, 81.970215%, 81.970215%)" offset="0.269531"/><stop stop-opacity="1" stop-color="rgb(81.70929%, 81.70929%, 81.70929%)" offset="0.273438"/><stop stop-opacity="1" stop-color="rgb(81.448364%, 81.448364%, 81.448364%)" offset="0.277344"/><stop stop-opacity="1" stop-color="rgb(81.187439%, 81.187439%, 81.187439%)" offset="0.28125"/><stop stop-opacity="1" stop-color="rgb(80.924988%, 80.924988%, 80.924988%)" offset="0.285156"/><stop stop-opacity="1" stop-color="rgb(80.664062%, 80.664062%, 80.664062%)" offset="0.289063"/><stop stop-opacity="1" stop-color="rgb(80.403137%, 80.403137%, 80.403137%)" offset="0.292969"/><stop stop-opacity="1" stop-color="rgb(80.142212%, 80.142212%, 80.142212%)" offset="0.296875"/><stop stop-opacity="1" stop-color="rgb(79.879761%, 79.879761%, 79.879761%)" offset="0.300781"/><stop stop-opacity="1" stop-color="rgb(79.618835%, 79.618835%, 79.618835%)" offset="0.304688"/><stop stop-opacity="1" stop-color="rgb(79.35791%, 79.35791%, 79.35791%)" offset="0.308594"/><stop stop-opacity="1" stop-color="rgb(79.096985%, 79.096985%, 79.096985%)" offset="0.3125"/><stop stop-opacity="1" stop-color="rgb(78.83606%, 78.83606%, 78.83606%)" offset="0.316406"/><stop stop-opacity="1" stop-color="rgb(78.575134%, 78.575134%, 78.575134%)" offset="0.320313"/><stop stop-opacity="1" stop-color="rgb(78.312683%, 78.312683%, 78.312683%)" offset="0.324219"/><stop stop-opacity="1" stop-color="rgb(78.051758%, 78.051758%, 78.051758%)" offset="0.328125"/><stop stop-opacity="1" stop-color="rgb(77.790833%, 77.790833%, 77.790833%)" offset="0.332031"/><stop stop-opacity="1" stop-color="rgb(77.529907%, 77.529907%, 77.529907%)" offset="0.335938"/><stop stop-opacity="1" stop-color="rgb(77.268982%, 77.268982%, 77.268982%)" offset="0.339844"/><stop stop-opacity="1" stop-color="rgb(77.008057%, 77.008057%, 77.008057%)" offset="0.34375"/><stop stop-opacity="1" stop-color="rgb(76.745605%, 76.745605%, 76.745605%)" offset="0.347656"/><stop stop-opacity="1" stop-color="rgb(76.48468%, 76.48468%, 76.48468%)" offset="0.351563"/><stop stop-opacity="1" stop-color="rgb(76.223755%, 76.223755%, 76.223755%)" offset="0.355469"/><stop stop-opacity="1" stop-color="rgb(75.96283%, 75.96283%, 75.96283%)" offset="0.359375"/><stop stop-opacity="1" stop-color="rgb(75.700378%, 75.700378%, 75.700378%)" offset="0.363281"/><stop stop-opacity="1" stop-color="rgb(75.439453%, 75.439453%, 75.439453%)" offset="0.367188"/><stop stop-opacity="1" stop-color="rgb(75.178528%, 75.178528%, 75.178528%)" offset="0.371094"/><stop stop-opacity="1" stop-color="rgb(74.917603%, 74.917603%, 74.917603%)" offset="0.375"/><stop stop-opacity="1" stop-color="rgb(74.656677%, 74.656677%, 74.656677%)" offset="0.378906"/><stop stop-opacity="1" stop-color="rgb(74.395752%, 74.395752%, 74.395752%)" offset="0.382812"/><stop stop-opacity="1" stop-color="rgb(74.133301%, 74.133301%, 74.133301%)" offset="0.386719"/><stop stop-opacity="1" stop-color="rgb(73.872375%, 73.872375%, 73.872375%)" offset="0.390625"/><stop stop-opacity="1" stop-color="rgb(73.61145%, 73.61145%, 73.61145%)" offset="0.394531"/><stop stop-opacity="1" stop-color="rgb(73.350525%, 73.350525%, 73.350525%)" offset="0.398438"/><stop stop-opacity="1" stop-color="rgb(73.0896%, 73.0896%, 73.0896%)" offset="0.402344"/><stop stop-opacity="1" stop-color="rgb(72.828674%, 72.828674%, 72.828674%)" offset="0.40625"/><stop stop-opacity="1" stop-color="rgb(72.566223%, 72.566223%, 72.566223%)" offset="0.410156"/><stop stop-opacity="1" stop-color="rgb(72.305298%, 72.305298%, 72.305298%)" offset="0.414062"/><stop stop-opacity="1" stop-color="rgb(72.044373%, 72.044373%, 72.044373%)" offset="0.417969"/><stop stop-opacity="1" stop-color="rgb(71.783447%, 71.783447%, 71.783447%)" offset="0.421875"/><stop stop-opacity="1" stop-color="rgb(71.522522%, 71.522522%, 71.522522%)" offset="0.425781"/><stop stop-opacity="1" stop-color="rgb(71.261597%, 71.261597%, 71.261597%)" offset="0.429688"/><stop stop-opacity="1" stop-color="rgb(70.999146%, 70.999146%, 70.999146%)" offset="0.433594"/><stop stop-opacity="1" stop-color="rgb(70.73822%, 70.73822%, 70.73822%)" offset="0.4375"/><stop stop-opacity="1" stop-color="rgb(70.477295%, 70.477295%, 70.477295%)" offset="0.441406"/><stop stop-opacity="1" stop-color="rgb(70.21637%, 70.21637%, 70.21637%)" offset="0.445313"/><stop stop-opacity="1" stop-color="rgb(69.953918%, 69.953918%, 69.953918%)" offset="0.449219"/><stop stop-opacity="1" stop-color="rgb(69.692993%, 69.692993%, 69.692993%)" offset="0.453125"/><stop stop-opacity="1" stop-color="rgb(69.432068%, 69.432068%, 69.432068%)" offset="0.457031"/><stop stop-opacity="1" stop-color="rgb(69.171143%, 69.171143%, 69.171143%)" offset="0.460938"/><stop stop-opacity="1" stop-color="rgb(68.910217%, 68.910217%, 68.910217%)" offset="0.464844"/><stop stop-opacity="1" stop-color="rgb(68.649292%, 68.649292%, 68.649292%)" offset="0.46875"/><stop stop-opacity="1" stop-color="rgb(68.386841%, 68.386841%, 68.386841%)" offset="0.472656"/><stop stop-opacity="1" stop-color="rgb(68.125916%, 68.125916%, 68.125916%)" offset="0.476563"/><stop stop-opacity="1" stop-color="rgb(67.86499%, 67.86499%, 67.86499%)" offset="0.480469"/><stop stop-opacity="1" stop-color="rgb(67.604065%, 67.604065%, 67.604065%)" offset="0.484375"/><stop stop-opacity="1" stop-color="rgb(67.34314%, 67.34314%, 67.34314%)" offset="0.488281"/><stop stop-opacity="1" stop-color="rgb(67.082214%, 67.082214%, 67.082214%)" offset="0.492188"/><stop stop-opacity="1" stop-color="rgb(66.819763%, 66.819763%, 66.819763%)" offset="0.496094"/><stop stop-opacity="1" stop-color="rgb(66.558838%, 66.558838%, 66.558838%)" offset="0.5"/><stop stop-opacity="1" stop-color="rgb(66.297913%, 66.297913%, 66.297913%)" offset="0.503906"/><stop stop-opacity="1" stop-color="rgb(66.036987%, 66.036987%, 66.036987%)" offset="0.507812"/><stop stop-opacity="1" stop-color="rgb(65.774536%, 65.774536%, 65.774536%)" offset="0.511719"/><stop stop-opacity="1" stop-color="rgb(65.513611%, 65.513611%, 65.513611%)" offset="0.515625"/><stop stop-opacity="1" stop-color="rgb(65.252686%, 65.252686%, 65.252686%)" offset="0.519531"/><stop stop-opacity="1" stop-color="rgb(64.99176%, 64.99176%, 64.99176%)" offset="0.523438"/><stop stop-opacity="1" stop-color="rgb(64.730835%, 64.730835%, 64.730835%)" offset="0.527344"/><stop stop-opacity="1" stop-color="rgb(64.46991%, 64.46991%, 64.46991%)" offset="0.53125"/><stop stop-opacity="1" stop-color="rgb(64.207458%, 64.207458%, 64.207458%)" offset="0.535156"/><stop stop-opacity="1" stop-color="rgb(63.946533%, 63.946533%, 63.946533%)" offset="0.539062"/><stop stop-opacity="1" stop-color="rgb(63.685608%, 63.685608%, 63.685608%)" offset="0.542969"/><stop stop-opacity="1" stop-color="rgb(63.424683%, 63.424683%, 63.424683%)" offset="0.546875"/><stop stop-opacity="1" stop-color="rgb(63.163757%, 63.163757%, 63.163757%)" offset="0.550781"/><stop stop-opacity="1" stop-color="rgb(62.902832%, 62.902832%, 62.902832%)" offset="0.554688"/><stop stop-opacity="1" stop-color="rgb(62.640381%, 62.640381%, 62.640381%)" offset="0.558594"/><stop stop-opacity="1" stop-color="rgb(62.379456%, 62.379456%, 62.379456%)" offset="0.5625"/><stop stop-opacity="1" stop-color="rgb(62.11853%, 62.11853%, 62.11853%)" offset="0.566406"/><stop stop-opacity="1" stop-color="rgb(61.857605%, 61.857605%, 61.857605%)" offset="0.570312"/><stop stop-opacity="1" stop-color="rgb(61.595154%, 61.595154%, 61.595154%)" offset="0.574219"/><stop stop-opacity="1" stop-color="rgb(61.334229%, 61.334229%, 61.334229%)" offset="0.578125"/><stop stop-opacity="1" stop-color="rgb(61.073303%, 61.073303%, 61.073303%)" offset="0.582031"/><stop stop-opacity="1" stop-color="rgb(60.812378%, 60.812378%, 60.812378%)" offset="0.585938"/><stop stop-opacity="1" stop-color="rgb(60.551453%, 60.551453%, 60.551453%)" offset="0.589844"/><stop stop-opacity="1" stop-color="rgb(60.290527%, 60.290527%, 60.290527%)" offset="0.59375"/><stop stop-opacity="1" stop-color="rgb(60.028076%, 60.028076%, 60.028076%)" offset="0.597656"/><stop stop-opacity="1" stop-color="rgb(59.767151%, 59.767151%, 59.767151%)" offset="0.601562"/><stop stop-opacity="1" stop-color="rgb(59.506226%, 59.506226%, 59.506226%)" offset="0.605469"/><stop stop-opacity="1" stop-color="rgb(59.2453%, 59.2453%, 59.2453%)" offset="0.609375"/><stop stop-opacity="1" stop-color="rgb(58.984375%, 58.984375%, 58.984375%)" offset="0.613281"/><stop stop-opacity="1" stop-color="rgb(58.72345%, 58.72345%, 58.72345%)" offset="0.617187"/><stop stop-opacity="1" stop-color="rgb(58.460999%, 58.460999%, 58.460999%)" offset="0.621094"/><stop stop-opacity="1" stop-color="rgb(58.200073%, 58.200073%, 58.200073%)" offset="0.625"/><stop stop-opacity="1" stop-color="rgb(57.939148%, 57.939148%, 57.939148%)" offset="0.628906"/><stop stop-opacity="1" stop-color="rgb(57.678223%, 57.678223%, 57.678223%)" offset="0.632812"/><stop stop-opacity="1" stop-color="rgb(57.415771%, 57.415771%, 57.415771%)" offset="0.636719"/><stop stop-opacity="1" stop-color="rgb(57.154846%, 57.154846%, 57.154846%)" offset="0.640625"/><stop stop-opacity="1" stop-color="rgb(56.893921%, 56.893921%, 56.893921%)" offset="0.644531"/><stop stop-opacity="1" stop-color="rgb(56.632996%, 56.632996%, 56.632996%)" offset="0.648438"/><stop stop-opacity="1" stop-color="rgb(56.37207%, 56.37207%, 56.37207%)" offset="0.652344"/><stop stop-opacity="1" stop-color="rgb(56.111145%, 56.111145%, 56.111145%)" offset="0.65625"/><stop stop-opacity="1" stop-color="rgb(55.848694%, 55.848694%, 55.848694%)" offset="0.660156"/><stop stop-opacity="1" stop-color="rgb(55.587769%, 55.587769%, 55.587769%)" offset="0.664062"/><stop stop-opacity="1" stop-color="rgb(55.326843%, 55.326843%, 55.326843%)" offset="0.667969"/><stop stop-opacity="1" stop-color="rgb(55.065918%, 55.065918%, 55.065918%)" offset="0.671875"/><stop stop-opacity="1" stop-color="rgb(54.804993%, 54.804993%, 54.804993%)" offset="0.675781"/><stop stop-opacity="1" stop-color="rgb(54.544067%, 54.544067%, 54.544067%)" offset="0.679688"/><stop stop-opacity="1" stop-color="rgb(54.281616%, 54.281616%, 54.281616%)" offset="0.683594"/><stop stop-opacity="1" stop-color="rgb(54.020691%, 54.020691%, 54.020691%)" offset="0.6875"/><stop stop-opacity="1" stop-color="rgb(53.759766%, 53.759766%, 53.759766%)" offset="0.691406"/><stop stop-opacity="1" stop-color="rgb(53.49884%, 53.49884%, 53.49884%)" offset="0.695312"/><stop stop-opacity="1" stop-color="rgb(53.237915%, 53.237915%, 53.237915%)" offset="0.699219"/><stop stop-opacity="1" stop-color="rgb(52.97699%, 52.97699%, 52.97699%)" offset="0.703125"/><stop stop-opacity="1" stop-color="rgb(52.714539%, 52.714539%, 52.714539%)" offset="0.707031"/><stop stop-opacity="1" stop-color="rgb(52.453613%, 52.453613%, 52.453613%)" offset="0.710937"/><stop stop-opacity="1" stop-color="rgb(52.192688%, 52.192688%, 52.192688%)" offset="0.714844"/><stop stop-opacity="1" stop-color="rgb(51.931763%, 51.931763%, 51.931763%)" offset="0.71875"/><stop stop-opacity="1" stop-color="rgb(51.669312%, 51.669312%, 51.669312%)" offset="0.722656"/><stop stop-opacity="1" stop-color="rgb(51.408386%, 51.408386%, 51.408386%)" offset="0.726562"/><stop stop-opacity="1" stop-color="rgb(51.147461%, 51.147461%, 51.147461%)" offset="0.730469"/><stop stop-opacity="1" stop-color="rgb(50.886536%, 50.886536%, 50.886536%)" offset="0.734375"/><stop stop-opacity="1" stop-color="rgb(50.62561%, 50.62561%, 50.62561%)" offset="0.738281"/><stop stop-opacity="1" stop-color="rgb(50.364685%, 50.364685%, 50.364685%)" offset="0.742187"/><stop stop-opacity="1" stop-color="rgb(50.102234%, 50.102234%, 50.102234%)" offset="0.746094"/><stop stop-opacity="1" stop-color="rgb(49.841309%, 49.841309%, 49.841309%)" offset="0.75"/><stop stop-opacity="1" stop-color="rgb(49.580383%, 49.580383%, 49.580383%)" offset="0.753906"/><stop stop-opacity="1" stop-color="rgb(49.319458%, 49.319458%, 49.319458%)" offset="0.757812"/><stop stop-opacity="1" stop-color="rgb(49.058533%, 49.058533%, 49.058533%)" offset="0.761719"/><stop stop-opacity="1" stop-color="rgb(48.797607%, 48.797607%, 48.797607%)" offset="0.765625"/><stop stop-opacity="1" stop-color="rgb(48.535156%, 48.535156%, 48.535156%)" offset="0.769531"/><stop stop-opacity="1" stop-color="rgb(48.274231%, 48.274231%, 48.274231%)" offset="0.773437"/><stop stop-opacity="1" stop-color="rgb(48.013306%, 48.013306%, 48.013306%)" offset="0.777344"/><stop stop-opacity="1" stop-color="rgb(47.75238%, 47.75238%, 47.75238%)" offset="0.78125"/><stop stop-opacity="1" stop-color="rgb(47.489929%, 47.489929%, 47.489929%)" offset="0.785156"/><stop stop-opacity="1" stop-color="rgb(47.229004%, 47.229004%, 47.229004%)" offset="0.789062"/><stop stop-opacity="1" stop-color="rgb(46.968079%, 46.968079%, 46.968079%)" offset="0.792969"/><stop stop-opacity="1" stop-color="rgb(46.707153%, 46.707153%, 46.707153%)" offset="0.796875"/><stop stop-opacity="1" stop-color="rgb(46.446228%, 46.446228%, 46.446228%)" offset="0.800781"/><stop stop-opacity="1" stop-color="rgb(46.185303%, 46.185303%, 46.185303%)" offset="0.804688"/><stop stop-opacity="1" stop-color="rgb(45.922852%, 45.922852%, 45.922852%)" offset="0.808594"/><stop stop-opacity="1" stop-color="rgb(45.661926%, 45.661926%, 45.661926%)" offset="0.8125"/><stop stop-opacity="1" stop-color="rgb(45.401001%, 45.401001%, 45.401001%)" offset="0.816406"/><stop stop-opacity="1" stop-color="rgb(45.140076%, 45.140076%, 45.140076%)" offset="0.820312"/><stop stop-opacity="1" stop-color="rgb(44.87915%, 44.87915%, 44.87915%)" offset="0.824219"/><stop stop-opacity="1" stop-color="rgb(44.618225%, 44.618225%, 44.618225%)" offset="0.828125"/><stop stop-opacity="1" stop-color="rgb(44.355774%, 44.355774%, 44.355774%)" offset="0.832031"/><stop stop-opacity="1" stop-color="rgb(44.094849%, 44.094849%, 44.094849%)" offset="0.835938"/><stop stop-opacity="1" stop-color="rgb(43.833923%, 43.833923%, 43.833923%)" offset="0.839844"/><stop stop-opacity="1" stop-color="rgb(43.572998%, 43.572998%, 43.572998%)" offset="0.84375"/><stop stop-opacity="1" stop-color="rgb(43.310547%, 43.310547%, 43.310547%)" offset="0.847656"/><stop stop-opacity="1" stop-color="rgb(43.049622%, 43.049622%, 43.049622%)" offset="0.851562"/><stop stop-opacity="1" stop-color="rgb(42.788696%, 42.788696%, 42.788696%)" offset="0.855469"/><stop stop-opacity="1" stop-color="rgb(42.527771%, 42.527771%, 42.527771%)" offset="0.859375"/><stop stop-opacity="1" stop-color="rgb(42.266846%, 42.266846%, 42.266846%)" offset="0.863281"/><stop stop-opacity="1" stop-color="rgb(42.00592%, 42.00592%, 42.00592%)" offset="0.867188"/><stop stop-opacity="1" stop-color="rgb(41.743469%, 41.743469%, 41.743469%)" offset="0.871094"/><stop stop-opacity="1" stop-color="rgb(41.482544%, 41.482544%, 41.482544%)" offset="0.875"/><stop stop-opacity="1" stop-color="rgb(41.221619%, 41.221619%, 41.221619%)" offset="0.878906"/><stop stop-opacity="1" stop-color="rgb(40.960693%, 40.960693%, 40.960693%)" offset="0.882813"/><stop stop-opacity="1" stop-color="rgb(40.699768%, 40.699768%, 40.699768%)" offset="0.886719"/><stop stop-opacity="1" stop-color="rgb(40.438843%, 40.438843%, 40.438843%)" offset="0.890625"/><stop stop-opacity="1" stop-color="rgb(40.176392%, 40.176392%, 40.176392%)" offset="0.894531"/><stop stop-opacity="1" stop-color="rgb(39.915466%, 39.915466%, 39.915466%)" offset="0.898438"/><stop stop-opacity="1" stop-color="rgb(39.654541%, 39.654541%, 39.654541%)" offset="0.902344"/><stop stop-opacity="1" stop-color="rgb(39.393616%, 39.393616%, 39.393616%)" offset="0.90625"/><stop stop-opacity="1" stop-color="rgb(39.13269%, 39.13269%, 39.13269%)" offset="0.910156"/><stop stop-opacity="1" stop-color="rgb(38.871765%, 38.871765%, 38.871765%)" offset="0.914063"/><stop stop-opacity="1" stop-color="rgb(38.609314%, 38.609314%, 38.609314%)" offset="0.917969"/><stop stop-opacity="1" stop-color="rgb(38.348389%, 38.348389%, 38.348389%)" offset="0.921875"/><stop stop-opacity="1" stop-color="rgb(38.087463%, 38.087463%, 38.087463%)" offset="0.925781"/><stop stop-opacity="1" stop-color="rgb(37.826538%, 37.826538%, 37.826538%)" offset="0.929688"/><stop stop-opacity="1" stop-color="rgb(37.564087%, 37.564087%, 37.564087%)" offset="0.933594"/><stop stop-opacity="1" stop-color="rgb(37.303162%, 37.303162%, 37.303162%)" offset="0.9375"/><stop stop-opacity="1" stop-color="rgb(37.042236%, 37.042236%, 37.042236%)" offset="0.941406"/><stop stop-opacity="1" stop-color="rgb(36.781311%, 36.781311%, 36.781311%)" offset="0.945312"/><stop stop-opacity="1" stop-color="rgb(36.520386%, 36.520386%, 36.520386%)" offset="0.949219"/><stop stop-opacity="1" stop-color="rgb(36.25946%, 36.25946%, 36.25946%)" offset="0.953125"/><stop stop-opacity="1" stop-color="rgb(35.997009%, 35.997009%, 35.997009%)" offset="0.957031"/><stop stop-opacity="1" stop-color="rgb(35.736084%, 35.736084%, 35.736084%)" offset="0.960938"/><stop stop-opacity="1" stop-color="rgb(35.475159%, 35.475159%, 35.475159%)" offset="0.964844"/><stop stop-opacity="1" stop-color="rgb(35.214233%, 35.214233%, 35.214233%)" offset="0.96875"/><stop stop-opacity="1" stop-color="rgb(34.953308%, 34.953308%, 34.953308%)" offset="0.972656"/><stop stop-opacity="1" stop-color="rgb(34.692383%, 34.692383%, 34.692383%)" offset="0.976562"/><stop stop-opacity="1" stop-color="rgb(34.429932%, 34.429932%, 34.429932%)" offset="0.980469"/><stop stop-opacity="1" stop-color="rgb(34.169006%, 34.169006%, 34.169006%)" offset="0.984375"/><stop stop-opacity="1" stop-color="rgb(33.908081%, 33.908081%, 33.908081%)" offset="0.988281"/><stop stop-opacity="1" stop-color="rgb(33.647156%, 33.647156%, 33.647156%)" offset="0.992188"/><stop stop-opacity="1" stop-color="rgb(33.384705%, 33.384705%, 33.384705%)" offset="0.996094"/><stop stop-opacity="1" stop-color="rgb(33.123779%, 33.123779%, 33.123779%)" offset="1"/></linearGradient></defs><g clip-path="url(#2077aea07a)"><g clip-path="url(#922827a383)"><path fill="url(#7e50a750b7)" d="M 4.480469 6.917969 L 4.480469 104.734375 L 102.296875 104.734375 L 102.296875 6.917969 Z M 4.480469 6.917969 " fill-rule="nonzero"/></g></g><path fill="#000000" d="M 26.644531 55.46875 C 40.941406 49.199219 50.496094 45.144531 55.3125 43.15625 C 68.921875 37.5 71.75 36.507812 73.585938 36.429688 C 73.96875 36.429688 74.886719 36.507812 75.496094 36.964844 C 75.957031 37.347656 76.109375 37.882812 76.1875 38.265625 C 76.261719 38.648438 76.339844 39.488281 76.261719 40.175781 C 75.496094 47.898438 72.363281 66.78125 70.679688 75.421875 C 69.992188 79.089844 68.617188 80.3125 67.316406 80.46875 C 64.488281 80.695312 62.269531 78.554688 59.519531 76.796875 C 55.238281 73.96875 52.792969 72.210938 48.585938 69.457031 C 43.769531 66.246094 46.90625 64.488281 49.65625 61.660156 C 50.34375 60.894531 62.960938 49.503906 63.1875 48.433594 C 63.1875 48.28125 63.265625 47.820312 62.960938 47.59375 C 62.652344 47.363281 62.269531 47.4375 61.964844 47.515625 C 61.507812 47.59375 54.625 52.179688 41.246094 61.199219 C 39.257812 62.578125 37.5 63.1875 35.894531 63.1875 C 34.136719 63.1875 30.773438 62.195312 28.25 61.355469 C 25.191406 60.359375 22.746094 59.824219 22.976562 58.144531 C 23.128906 57.300781 24.351562 56.382812 26.644531 55.46875 Z M 26.644531 55.46875 " fill-opacity="1" fill-rule="evenodd"/><g fill="#ffffff" fill-opacity="1"><g transform="translate(105.371728, 76.90818)"><g><path d="M 14.984375 0.546875 C 12.429688 0.546875 10.304688 0.304688 8.609375 -0.171875 C 6.910156 -0.648438 5.546875 -1.265625 4.515625 -2.015625 C 3.492188 -2.773438 2.765625 -3.625 2.328125 -4.5625 C 1.898438 -5.507812 1.6875 -6.445312 1.6875 -7.375 C 1.6875 -8.351562 1.863281 -9.171875 2.21875 -9.828125 C 2.582031 -10.492188 3.066406 -11.039062 3.671875 -11.46875 C 4.273438 -11.894531 4.957031 -12.195312 5.71875 -12.375 C 6.488281 -12.5625 7.285156 -12.65625 8.109375 -12.65625 C 8.109375 -11.03125 8.300781 -9.601562 8.6875 -8.375 C 9.082031 -7.144531 9.617188 -6.117188 10.296875 -5.296875 C 10.984375 -4.484375 11.800781 -3.867188 12.75 -3.453125 C 13.707031 -3.035156 14.75 -2.828125 15.875 -2.828125 C 16.976562 -2.828125 17.960938 -2.984375 18.828125 -3.296875 C 19.703125 -3.609375 20.441406 -4.039062 21.046875 -4.59375 C 21.660156 -5.144531 22.125 -5.796875 22.4375 -6.546875 C 22.75 -7.296875 22.90625 -8.101562 22.90625 -8.96875 C 22.90625 -9.9375 22.710938 -10.789062 22.328125 -11.53125 C 21.941406 -12.28125 21.351562 -12.972656 20.5625 -13.609375 C 19.78125 -14.253906 18.789062 -14.863281 17.59375 -15.4375 C 16.40625 -16.019531 15.019531 -16.644531 13.4375 -17.3125 C 11.457031 -18.125 9.789062 -18.957031 8.4375 -19.8125 C 7.082031 -20.675781 5.988281 -21.601562 5.15625 -22.59375 C 4.320312 -23.59375 3.722656 -24.675781 3.359375 -25.84375 C 3.003906 -27.007812 2.828125 -28.285156 2.828125 -29.671875 C 2.828125 -31.398438 3.175781 -32.96875 3.875 -34.375 C 4.582031 -35.78125 5.550781 -36.976562 6.78125 -37.96875 C 8.019531 -38.96875 9.488281 -39.734375 11.1875 -40.265625 C 12.882812 -40.804688 14.734375 -41.078125 16.734375 -41.078125 C 18.816406 -41.078125 20.613281 -40.90625 22.125 -40.5625 C 23.644531 -40.226562 24.898438 -39.765625 25.890625 -39.171875 C 26.878906 -38.578125 27.613281 -37.878906 28.09375 -37.078125 C 28.570312 -36.273438 28.8125 -35.410156 28.8125 -34.484375 C 28.8125 -33.816406 28.664062 -33.195312 28.375 -32.625 C 28.09375 -32.0625 27.660156 -31.566406 27.078125 -31.140625 C 26.492188 -30.710938 25.765625 -30.378906 24.890625 -30.140625 C 24.015625 -29.898438 22.992188 -29.78125 21.828125 -29.78125 C 21.828125 -30.570312 21.71875 -31.425781 21.5 -32.34375 C 21.289062 -33.257812 20.945312 -34.109375 20.46875 -34.890625 C 19.988281 -35.671875 19.363281 -36.320312 18.59375 -36.84375 C 17.832031 -37.363281 16.90625 -37.625 15.8125 -37.625 C 15.0625 -37.625 14.34375 -37.507812 13.65625 -37.28125 C 12.96875 -37.0625 12.367188 -36.726562 11.859375 -36.28125 C 11.359375 -35.84375 10.957031 -35.296875 10.65625 -34.640625 C 10.363281 -33.984375 10.21875 -33.234375 10.21875 -32.390625 C 10.21875 -31.585938 10.347656 -30.835938 10.609375 -30.140625 C 10.867188 -29.441406 11.34375 -28.753906 12.03125 -28.078125 C 12.726562 -27.398438 13.679688 -26.722656 14.890625 -26.046875 C 16.097656 -25.378906 17.660156 -24.65625 19.578125 -23.875 C 21.523438 -23.082031 23.179688 -22.269531 24.546875 -21.4375 C 25.910156 -20.601562 27.03125 -19.710938 27.90625 -18.765625 C 28.78125 -17.816406 29.414062 -16.773438 29.8125 -15.640625 C 30.21875 -14.503906 30.421875 -13.242188 30.421875 -11.859375 C 30.421875 -10.023438 30.054688 -8.347656 29.328125 -6.828125 C 28.609375 -5.304688 27.578125 -4 26.234375 -2.90625 C 24.890625 -1.820312 23.269531 -0.972656 21.375 -0.359375 C 19.476562 0.242188 17.347656 0.546875 14.984375 0.546875 Z M 14.984375 0.546875 "/></g></g></g><g fill="#ffffff" fill-opacity="1"><g transform="translate(137.47963, 76.90818)"><g><path d="M 12.359375 -13.328125 L 10.71875 -8.453125 C 10.570312 -7.984375 10.421875 -7.441406 10.265625 -6.828125 C 10.109375 -6.210938 10.03125 -5.671875 10.03125 -5.203125 C 10.03125 -4.835938 10.101562 -4.515625 10.25 -4.234375 C 10.394531 -3.960938 10.585938 -3.738281 10.828125 -3.5625 C 11.066406 -3.382812 11.335938 -3.25 11.640625 -3.15625 C 11.953125 -3.0625 12.273438 -3.015625 12.609375 -3.015625 L 14.984375 -3.015625 L 14.984375 0 L 0.21875 0 L 0.21875 -3.015625 L 0.921875 -3.015625 C 1.410156 -3.015625 1.863281 -3.070312 2.28125 -3.1875 C 2.695312 -3.300781 3.082031 -3.507812 3.4375 -3.8125 C 3.800781 -4.113281 4.144531 -4.53125 4.46875 -5.0625 C 4.789062 -5.601562 5.117188 -6.296875 5.453125 -7.140625 L 17.75 -40.5 L 25.546875 -40.5 L 37.390625 -7.09375 C 37.671875 -6.300781 37.960938 -5.640625 38.265625 -5.109375 C 38.578125 -4.585938 38.910156 -4.171875 39.265625 -3.859375 C 39.628906 -3.554688 40.015625 -3.335938 40.421875 -3.203125 C 40.828125 -3.078125 41.25 -3.015625 41.6875 -3.015625 L 42.71875 -3.015625 L 42.71875 0 L 23.984375 0 L 23.984375 -3.015625 L 26.203125 -3.015625 C 26.484375 -3.015625 26.769531 -3.054688 27.0625 -3.140625 C 27.363281 -3.222656 27.628906 -3.351562 27.859375 -3.53125 C 28.085938 -3.707031 28.273438 -3.929688 28.421875 -4.203125 C 28.566406 -4.484375 28.640625 -4.816406 28.640625 -5.203125 C 28.640625 -5.671875 28.582031 -6.113281 28.46875 -6.53125 C 28.363281 -6.957031 28.253906 -7.328125 28.140625 -7.640625 L 26.15625 -13.328125 Z M 22.015625 -26.09375 C 21.816406 -26.738281 21.609375 -27.414062 21.390625 -28.125 C 21.179688 -28.84375 20.96875 -29.570312 20.75 -30.3125 C 20.539062 -31.050781 20.335938 -31.785156 20.140625 -32.515625 C 19.953125 -33.242188 19.785156 -33.9375 19.640625 -34.59375 C 19.472656 -34.019531 19.28125 -33.390625 19.0625 -32.703125 C 18.84375 -32.023438 18.609375 -31.328125 18.359375 -30.609375 C 18.109375 -29.890625 17.859375 -29.171875 17.609375 -28.453125 C 17.359375 -27.734375 17.117188 -27.039062 16.890625 -26.375 L 13.546875 -16.78125 L 25.015625 -16.78125 Z M 22.015625 -26.09375 "/></g></g></g><g fill="#ffffff" fill-opacity="1"><g transform="translate(180.197937, 76.90818)"><g><path d="M 12.359375 -13.328125 L 10.71875 -8.453125 C 10.570312 -7.984375 10.421875 -7.441406 10.265625 -6.828125 C 10.109375 -6.210938 10.03125 -5.671875 10.03125 -5.203125 C 10.03125 -4.835938 10.101562 -4.515625 10.25 -4.234375 C 10.394531 -3.960938 10.585938 -3.738281 10.828125 -3.5625 C 11.066406 -3.382812 11.335938 -3.25 11.640625 -3.15625 C 11.953125 -3.0625 12.273438 -3.015625 12.609375 -3.015625 L 14.984375 -3.015625 L 14.984375 0 L 0.21875 0 L 0.21875 -3.015625 L 0.921875 -3.015625 C 1.410156 -3.015625 1.863281 -3.070312 2.28125 -3.1875 C 2.695312 -3.300781 3.082031 -3.507812 3.4375 -3.8125 C 3.800781 -4.113281 4.144531 -4.53125 4.46875 -5.0625 C 4.789062 -5.601562 5.117188 -6.296875 5.453125 -7.140625 L 17.75 -40.5 L 25.546875 -40.5 L 37.390625 -7.09375 C 37.671875 -6.300781 37.960938 -5.640625 38.265625 -5.109375 C 38.578125 -4.585938 38.910156 -4.171875 39.265625 -3.859375 C 39.628906 -3.554688 40.015625 -3.335938 40.421875 -3.203125 C 40.828125 -3.078125 41.25 -3.015625 41.6875 -3.015625 L 42.71875 -3.015625 L 42.71875 0 L 23.984375 0 L 23.984375 -3.015625 L 26.203125 -3.015625 C 26.484375 -3.015625 26.769531 -3.054688 27.0625 -3.140625 C 27.363281 -3.222656 27.628906 -3.351562 27.859375 -3.53125 C 28.085938 -3.707031 28.273438 -3.929688 28.421875 -4.203125 C 28.566406 -4.484375 28.640625 -4.816406 28.640625 -5.203125 C 28.640625 -5.671875 28.582031 -6.113281 28.46875 -6.53125 C 28.363281 -6.957031 28.253906 -7.328125 28.140625 -7.640625 L 26.15625 -13.328125 Z M 22.015625 -26.09375 C 21.816406 -26.738281 21.609375 -27.414062 21.390625 -28.125 C 21.179688 -28.84375 20.96875 -29.570312 20.75 -30.3125 C 20.539062 -31.050781 20.335938 -31.785156 20.140625 -32.515625 C 19.953125 -33.242188 19.785156 -33.9375 19.640625 -34.59375 C 19.472656 -34.019531 19.28125 -33.390625 19.0625 -32.703125 C 18.84375 -32.023438 18.609375 -31.328125 18.359375 -30.609375 C 18.109375 -29.890625 17.859375 -29.171875 17.609375 -28.453125 C 17.359375 -27.734375 17.117188 -27.039062 16.890625 -26.375 L 13.546875 -16.78125 L 25.015625 -16.78125 Z M 22.015625 -26.09375 "/></g></g></g><g fill="#ffffff" fill-opacity="1"><g transform="translate(222.916244, 76.90818)"><g><path d="M 14.984375 0.546875 C 12.429688 0.546875 10.304688 0.304688 8.609375 -0.171875 C 6.910156 -0.648438 5.546875 -1.265625 4.515625 -2.015625 C 3.492188 -2.773438 2.765625 -3.625 2.328125 -4.5625 C 1.898438 -5.507812 1.6875 -6.445312 1.6875 -7.375 C 1.6875 -8.351562 1.863281 -9.171875 2.21875 -9.828125 C 2.582031 -10.492188 3.066406 -11.039062 3.671875 -11.46875 C 4.273438 -11.894531 4.957031 -12.195312 5.71875 -12.375 C 6.488281 -12.5625 7.285156 -12.65625 8.109375 -12.65625 C 8.109375 -11.03125 8.300781 -9.601562 8.6875 -8.375 C 9.082031 -7.144531 9.617188 -6.117188 10.296875 -5.296875 C 10.984375 -4.484375 11.800781 -3.867188 12.75 -3.453125 C 13.707031 -3.035156 14.75 -2.828125 15.875 -2.828125 C 16.976562 -2.828125 17.960938 -2.984375 18.828125 -3.296875 C 19.703125 -3.609375 20.441406 -4.039062 21.046875 -4.59375 C 21.660156 -5.144531 22.125 -5.796875 22.4375 -6.546875 C 22.75 -7.296875 22.90625 -8.101562 22.90625 -8.96875 C 22.90625 -9.9375 22.710938 -10.789062 22.328125 -11.53125 C 21.941406 -12.28125 21.351562 -12.972656 20.5625 -13.609375 C 19.78125 -14.253906 18.789062 -14.863281 17.59375 -15.4375 C 16.40625 -16.019531 15.019531 -16.644531 13.4375 -17.3125 C 11.457031 -18.125 9.789062 -18.957031 8.4375 -19.8125 C 7.082031 -20.675781 5.988281 -21.601562 5.15625 -22.59375 C 4.320312 -23.59375 3.722656 -24.675781 3.359375 -25.84375 C 3.003906 -27.007812 2.828125 -28.285156 2.828125 -29.671875 C 2.828125 -31.398438 3.175781 -32.96875 3.875 -34.375 C 4.582031 -35.78125 5.550781 -36.976562 6.78125 -37.96875 C 8.019531 -38.96875 9.488281 -39.734375 11.1875 -40.265625 C 12.882812 -40.804688 14.734375 -41.078125 16.734375 -41.078125 C 18.816406 -41.078125 20.613281 -40.90625 22.125 -40.5625 C 23.644531 -40.226562 24.898438 -39.765625 25.890625 -39.171875 C 26.878906 -38.578125 27.613281 -37.878906 28.09375 -37.078125 C 28.570312 -36.273438 28.8125 -35.410156 28.8125 -34.484375 C 28.8125 -33.816406 28.664062 -33.195312 28.375 -32.625 C 28.09375 -32.0625 27.660156 -31.566406 27.078125 -31.140625 C 26.492188 -30.710938 25.765625 -30.378906 24.890625 -30.140625 C 24.015625 -29.898438 22.992188 -29.78125 21.828125 -29.78125 C 21.828125 -30.570312 21.71875 -31.425781 21.5 -32.34375 C 21.289062 -33.257812 20.945312 -34.109375 20.46875 -34.890625 C 19.988281 -35.671875 19.363281 -36.320312 18.59375 -36.84375 C 17.832031 -37.363281 16.90625 -37.625 15.8125 -37.625 C 15.0625 -37.625 14.34375 -37.507812 13.65625 -37.28125 C 12.96875 -37.0625 12.367188 -36.726562 11.859375 -36.28125 C 11.359375 -35.84375 10.957031 -35.296875 10.65625 -34.640625 C 10.363281 -33.984375 10.21875 -33.234375 10.21875 -32.390625 C 10.21875 -31.585938 10.347656 -30.835938 10.609375 -30.140625 C 10.867188 -29.441406 11.34375 -28.753906 12.03125 -28.078125 C 12.726562 -27.398438 13.679688 -26.722656 14.890625 -26.046875 C 16.097656 -25.378906 17.660156 -24.65625 19.578125 -23.875 C 21.523438 -23.082031 23.179688 -22.269531 24.546875 -21.4375 C 25.910156 -20.601562 27.03125 -19.710938 27.90625 -18.765625 C 28.78125 -17.816406 29.414062 -16.773438 29.8125 -15.640625 C 30.21875 -14.503906 30.421875 -13.242188 30.421875 -11.859375 C 30.421875 -10.023438 30.054688 -8.347656 29.328125 -6.828125 C 28.609375 -5.304688 27.578125 -4 26.234375 -2.90625 C 24.890625 -1.820312 23.269531 -0.972656 21.375 -0.359375 C 19.476562 0.242188 17.347656 0.546875 14.984375 0.546875 Z M 14.984375 0.546875 "/></g></g></g><g fill="#ffffff" fill-opacity="1"><g transform="translate(256.160062, 76.90818)"><g/></g></g><g fill="#ffffff" fill-opacity="1"><g transform="translate(270.898155, 76.90818)"><g><path d="M 1.578125 0 L 1.578125 -3.015625 L 3.96875 -3.015625 C 4.382812 -3.015625 4.769531 -3.054688 5.125 -3.140625 C 5.476562 -3.222656 5.78125 -3.394531 6.03125 -3.65625 C 6.289062 -3.914062 6.492188 -4.285156 6.640625 -4.765625 C 6.796875 -5.242188 6.875 -5.890625 6.875 -6.703125 L 6.875 -33.828125 C 6.875 -34.640625 6.796875 -35.285156 6.640625 -35.765625 C 6.492188 -36.242188 6.289062 -36.613281 6.03125 -36.875 C 5.78125 -37.132812 5.476562 -37.304688 5.125 -37.390625 C 4.769531 -37.472656 4.382812 -37.515625 3.96875 -37.515625 L 1.578125 -37.515625 L 1.578125 -40.5 L 21.171875 -40.5 L 21.171875 -37.515625 L 18.78125 -37.515625 C 18.394531 -37.515625 18.019531 -37.472656 17.65625 -37.390625 C 17.300781 -37.304688 16.992188 -37.144531 16.734375 -36.90625 C 16.472656 -36.664062 16.265625 -36.316406 16.109375 -35.859375 C 15.953125 -35.410156 15.875 -34.804688 15.875 -34.046875 L 15.875 -3.46875 L 26.421875 -3.46875 C 27.753906 -3.46875 28.789062 -3.882812 29.53125 -4.71875 C 30.269531 -5.5625 30.804688 -6.785156 31.140625 -8.390625 L 32.046875 -12.65625 L 35.234375 -12.65625 L 34.828125 0 Z M 1.578125 0 "/></g></g></g><g fill="#ffffff" fill-opacity="1"><g transform="translate(307.992722, 76.90818)"><g><path d="M 41.53125 -20.3125 C 41.53125 -17.1875 41.109375 -14.335938 40.265625 -11.765625 C 39.421875 -9.203125 38.179688 -7.003906 36.546875 -5.171875 C 34.921875 -3.347656 32.921875 -1.9375 30.546875 -0.9375 C 28.171875 0.0507812 25.441406 0.546875 22.359375 0.546875 C 19.128906 0.546875 16.304688 0.0507812 13.890625 -0.9375 C 11.484375 -1.9375 9.484375 -3.347656 7.890625 -5.171875 C 6.304688 -7.003906 5.113281 -9.207031 4.3125 -11.78125 C 3.519531 -14.363281 3.125 -17.222656 3.125 -20.359375 C 3.125 -23.503906 3.519531 -26.351562 4.3125 -28.90625 C 5.113281 -31.46875 6.3125 -33.648438 7.90625 -35.453125 C 9.507812 -37.265625 11.515625 -38.664062 13.921875 -39.65625 C 16.328125 -40.644531 19.15625 -41.140625 22.40625 -41.140625 C 25.476562 -41.140625 28.195312 -40.644531 30.5625 -39.65625 C 32.9375 -38.664062 34.9375 -37.257812 36.5625 -35.4375 C 38.1875 -33.625 39.421875 -31.4375 40.265625 -28.875 C 41.109375 -26.320312 41.53125 -23.46875 41.53125 -20.3125 Z M 12.65625 -20.3125 C 12.65625 -17.59375 12.832031 -15.171875 13.1875 -13.046875 C 13.539062 -10.921875 14.101562 -9.125 14.875 -7.65625 C 15.65625 -6.1875 16.65625 -5.0625 17.875 -4.28125 C 19.101562 -3.507812 20.597656 -3.125 22.359375 -3.125 C 24.128906 -3.125 25.628906 -3.507812 26.859375 -4.28125 C 28.085938 -5.0625 29.078125 -6.1875 29.828125 -7.65625 C 30.585938 -9.125 31.140625 -10.921875 31.484375 -13.046875 C 31.828125 -15.171875 32 -17.59375 32 -20.3125 C 32 -23.019531 31.828125 -25.4375 31.484375 -27.5625 C 31.140625 -29.6875 30.585938 -31.484375 29.828125 -32.953125 C 29.078125 -34.421875 28.09375 -35.535156 26.875 -36.296875 C 25.65625 -37.066406 24.164062 -37.453125 22.40625 -37.453125 C 20.632812 -37.453125 19.128906 -37.066406 17.890625 -36.296875 C 16.660156 -35.535156 15.65625 -34.421875 14.875 -32.953125 C 14.101562 -31.484375 13.539062 -29.6875 13.1875 -27.5625 C 12.832031 -25.4375 12.65625 -23.019531 12.65625 -20.3125 Z M 12.65625 -20.3125 "/></g></g></g><g fill="#ffffff" fill-opacity="1"><g transform="translate(352.650251, 76.90818)"><g><path d="M 23.984375 0.546875 C 20.484375 0.546875 17.425781 0.0507812 14.8125 -0.9375 C 12.195312 -1.9375 10.019531 -3.347656 8.28125 -5.171875 C 6.539062 -7.003906 5.242188 -9.203125 4.390625 -11.765625 C 3.546875 -14.335938 3.125 -17.1875 3.125 -20.3125 C 3.125 -23.375 3.578125 -26.175781 4.484375 -28.71875 C 5.390625 -31.269531 6.726562 -33.457031 8.5 -35.28125 C 10.269531 -37.113281 12.476562 -38.535156 15.125 -39.546875 C 17.769531 -40.566406 20.828125 -41.078125 24.296875 -41.078125 C 26.660156 -41.078125 28.722656 -40.90625 30.484375 -40.5625 C 32.242188 -40.226562 33.71875 -39.765625 34.90625 -39.171875 C 36.101562 -38.578125 37 -37.878906 37.59375 -37.078125 C 38.1875 -36.273438 38.484375 -35.410156 38.484375 -34.484375 C 38.484375 -33.816406 38.320312 -33.191406 38 -32.609375 C 37.6875 -32.035156 37.21875 -31.523438 36.59375 -31.078125 C 35.96875 -30.640625 35.203125 -30.296875 34.296875 -30.046875 C 33.390625 -29.796875 32.335938 -29.671875 31.140625 -29.671875 C 31.140625 -30.816406 31 -31.867188 30.71875 -32.828125 C 30.445312 -33.785156 30.019531 -34.601562 29.4375 -35.28125 C 28.851562 -35.96875 28.117188 -36.5 27.234375 -36.875 C 26.347656 -37.257812 25.300781 -37.453125 24.09375 -37.453125 C 22.03125 -37.453125 20.273438 -37.070312 18.828125 -36.3125 C 17.378906 -35.5625 16.195312 -34.457031 15.28125 -33 C 14.363281 -31.539062 13.695312 -29.742188 13.28125 -27.609375 C 12.863281 -25.472656 12.65625 -23.039062 12.65625 -20.3125 C 12.65625 -17.570312 12.875 -15.144531 13.3125 -13.03125 C 13.75 -10.914062 14.453125 -9.140625 15.421875 -7.703125 C 16.390625 -6.265625 17.644531 -5.171875 19.1875 -4.421875 C 20.726562 -3.671875 22.613281 -3.296875 24.84375 -3.296875 C 25.550781 -3.296875 26.253906 -3.320312 26.953125 -3.375 C 27.648438 -3.4375 28.332031 -3.539062 29 -3.6875 L 29 -12.015625 C 29 -13.535156 28.65625 -14.585938 27.96875 -15.171875 C 27.289062 -15.765625 26.285156 -16.0625 24.953125 -16.0625 L 24.21875 -16.0625 L 24.21875 -19.0625 L 42.046875 -19.0625 L 42.046875 -16.0625 L 41.296875 -16.0625 C 40.734375 -16.0625 40.238281 -15.992188 39.8125 -15.859375 C 39.382812 -15.722656 39.03125 -15.488281 38.75 -15.15625 C 38.476562 -14.820312 38.273438 -14.378906 38.140625 -13.828125 C 38.015625 -13.285156 37.953125 -12.609375 37.953125 -11.796875 L 37.953125 -2.5 C 35.734375 -1.476562 33.5 -0.710938 31.25 -0.203125 C 29 0.296875 26.578125 0.546875 23.984375 0.546875 Z M 23.984375 0.546875 "/></g></g></g><g fill="#ffffff" fill-opacity="1"><g transform="translate(396.28278, 76.90818)"><g><path d="M 41.53125 -20.3125 C 41.53125 -17.1875 41.109375 -14.335938 40.265625 -11.765625 C 39.421875 -9.203125 38.179688 -7.003906 36.546875 -5.171875 C 34.921875 -3.347656 32.921875 -1.9375 30.546875 -0.9375 C 28.171875 0.0507812 25.441406 0.546875 22.359375 0.546875 C 19.128906 0.546875 16.304688 0.0507812 13.890625 -0.9375 C 11.484375 -1.9375 9.484375 -3.347656 7.890625 -5.171875 C 6.304688 -7.003906 5.113281 -9.207031 4.3125 -11.78125 C 3.519531 -14.363281 3.125 -17.222656 3.125 -20.359375 C 3.125 -23.503906 3.519531 -26.351562 4.3125 -28.90625 C 5.113281 -31.46875 6.3125 -33.648438 7.90625 -35.453125 C 9.507812 -37.265625 11.515625 -38.664062 13.921875 -39.65625 C 16.328125 -40.644531 19.15625 -41.140625 22.40625 -41.140625 C 25.476562 -41.140625 28.195312 -40.644531 30.5625 -39.65625 C 32.9375 -38.664062 34.9375 -37.257812 36.5625 -35.4375 C 38.1875 -33.625 39.421875 -31.4375 40.265625 -28.875 C 41.109375 -26.320312 41.53125 -23.46875 41.53125 -20.3125 Z M 12.65625 -20.3125 C 12.65625 -17.59375 12.832031 -15.171875 13.1875 -13.046875 C 13.539062 -10.921875 14.101562 -9.125 14.875 -7.65625 C 15.65625 -6.1875 16.65625 -5.0625 17.875 -4.28125 C 19.101562 -3.507812 20.597656 -3.125 22.359375 -3.125 C 24.128906 -3.125 25.628906 -3.507812 26.859375 -4.28125 C 28.085938 -5.0625 29.078125 -6.1875 29.828125 -7.65625 C 30.585938 -9.125 31.140625 -10.921875 31.484375 -13.046875 C 31.828125 -15.171875 32 -17.59375 32 -20.3125 C 32 -23.019531 31.828125 -25.4375 31.484375 -27.5625 C 31.140625 -29.6875 30.585938 -31.484375 29.828125 -32.953125 C 29.078125 -34.421875 28.09375 -35.535156 26.875 -36.296875 C 25.65625 -37.066406 24.164062 -37.453125 22.40625 -37.453125 C 20.632812 -37.453125 19.128906 -37.066406 17.890625 -36.296875 C 16.660156 -35.535156 15.65625 -34.421875 14.875 -32.953125 C 14.101562 -31.484375 13.539062 -29.6875 13.1875 -27.5625 C 12.832031 -25.4375 12.65625 -23.019531 12.65625 -20.3125 Z M 12.65625 -20.3125 "/></g></g></g></svg>